<svg width="58" height="56" viewBox="0 0 58 56" fill="none" xmlns="http://www.w3.org/2000/svg">
<path d="M19.575 14.0875C19.575 15.1375 18.6687 16.0125 17.5812 16.0125H8.79062C7.70312 16.0125 6.79688 15.1375 6.79688 14.0875V11.725C6.79688 10.675 7.70312 9.80005 8.79062 9.80005H17.5812C18.6687 9.80005 19.575 10.675 19.575 11.725V14.0875ZM55.0094 13.9125C55.0094 14.4375 54.5563 14.9625 53.9219 14.9625H49.2094C48.6656 14.9625 48.1219 14.525 48.1219 13.9125V12.6875C48.1219 12.1625 48.575 11.6375 49.2094 11.6375H53.9219C54.4656 11.6375 55.0094 12.075 55.0094 12.6875V13.9125ZM58 44.0125C58 46.6375 55.825 48.7375 53.1062 48.7375H4.89375C2.175 48.7375 0 46.6375 0 44.0125V42.6125H58V44.0125Z" fill="#212528"/>
<path d="M0 17.5875C0 14.9625 2.175 12.8625 4.89375 12.8625H53.0156C55.7344 12.8625 57.9094 14.9625 57.9094 17.5875V18.9875H0V17.5875Z" fill="#51575B"/>
<path d="M0 18.8125H58V43.575H0V18.8125Z" fill="#3E4347"/>
<path d="M49.5718 15.75H20.4812L23.3812 6.30002C23.6531 5.77502 24.8312 4.90002 25.5562 4.72502C29.9968 3.50002 39.9656 3.50002 44.4062 4.72502C45.1312 4.90002 46.3093 5.77502 46.5812 6.30002L49.5718 15.75Z" fill="#51575B"/>
<path d="M48.1218 25.9H21.8406L24.4687 13.125C24.65 12.425 25.8281 11.2875 26.4625 11.025C30.45 9.45 39.5125 9.45 43.5 11.025C44.1343 11.2875 45.2218 12.425 45.4937 13.125L48.1218 25.9Z" fill="#3E4347"/>
<path d="M54.9187 32.9C54.9187 43.575 45.9468 52.15 34.9812 52.15C24.0156 52.15 15.0437 43.575 15.0437 32.9C15.0437 22.3125 24.0156 13.65 34.9812 13.65C46.0374 13.65 54.9187 22.3125 54.9187 32.9Z" fill="#788287"/>
<path d="M52.7438 32.9C52.7438 42.35 44.7687 50.05 34.9812 50.05C25.1937 50.05 17.2188 42.35 17.2188 32.9C17.2188 23.45 25.1937 15.75 34.9812 15.75C44.7687 15.8375 52.7438 23.45 52.7438 32.9Z" fill="#212528"/>
<path d="M34.9812 46.8125C42.9392 46.8125 49.3905 40.5837 49.3905 32.9C49.3905 25.2164 42.9392 18.9875 34.9812 18.9875C27.0231 18.9875 20.5718 25.2164 20.5718 32.9C20.5718 40.5837 27.0231 46.8125 34.9812 46.8125Z" fill="#3E4347"/>
<path d="M34.9812 40.425C39.2856 40.425 42.775 37.0559 42.775 32.9C42.775 28.7441 39.2856 25.375 34.9812 25.375C30.6769 25.375 27.1875 28.7441 27.1875 32.9C27.1875 37.0559 30.6769 40.425 34.9812 40.425Z" fill="#212528"/>
<path opacity="0.5" d="M45.5844 27.0374C45.5844 29.3999 43.5906 31.3249 41.1438 31.3249C38.6969 31.3249 36.7031 29.3999 36.7031 27.0374C36.7031 24.6749 38.6969 22.7499 41.1438 22.7499C43.5906 22.6624 45.5844 24.6749 45.5844 27.0374Z" fill="#F5F5F5"/>
<path opacity="0.5" d="M32.2625 38.3249C33.8141 38.3249 35.0719 37.1105 35.0719 35.6124C35.0719 34.1143 33.8141 32.8999 32.2625 32.8999C30.7109 32.8999 29.4531 34.1143 29.4531 35.6124C29.4531 37.1105 30.7109 38.3249 32.2625 38.3249Z" fill="#F5F5F5"/>
<path opacity="0.5" d="M27.278 42.0875C28.229 42.0875 28.9999 41.3431 28.9999 40.425C28.9999 39.5068 28.229 38.7625 27.278 38.7625C26.3271 38.7625 25.5562 39.5068 25.5562 40.425C25.5562 41.3431 26.3271 42.0875 27.278 42.0875Z" fill="#F5F5F5"/>
<path d="M13.5938 39.6375C13.5938 40.6875 12.6876 41.5625 11.6 41.5625H3.26255C2.17505 41.5625 1.2688 40.6875 1.2688 39.6375V22.6625C1.2688 21.6125 2.17505 20.7375 3.26255 20.7375H11.6C12.6876 20.7375 13.5938 21.6125 13.5938 22.6625V39.6375Z" fill="#636C72"/>
<path d="M9.15317 19.075C10.7548 19.075 12.0532 17.8214 12.0532 16.275C12.0532 14.7286 10.7548 13.475 9.15317 13.475C7.55155 13.475 6.25317 14.7286 6.25317 16.275C6.25317 17.8214 7.55155 19.075 9.15317 19.075Z" fill="#212528"/>
</svg>
