<svg width="45" height="41" viewBox="0 0 45 41" fill="none" xmlns="http://www.w3.org/2000/svg">
<path d="M22.5 38.4375C33.3731 38.4375 42.1875 30.4066 42.1875 20.5C42.1875 10.5934 33.3731 2.5625 22.5 2.5625C11.6269 2.5625 2.8125 10.5934 2.8125 20.5C2.8125 30.4066 11.6269 38.4375 22.5 38.4375Z" fill="url(#paint0_radial_5_34)"/>
<g filter="url(#filter0_f_5_34)">
<path d="M22.5 33.3125C30.2665 33.3125 36.5625 27.5761 36.5625 20.5C36.5625 13.4239 30.2665 7.6875 22.5 7.6875C14.7335 7.6875 8.4375 13.4239 8.4375 20.5C8.4375 27.5761 14.7335 33.3125 22.5 33.3125Z" fill="url(#paint1_radial_5_34)"/>
</g>
<g filter="url(#filter1_f_5_34)">
<path d="M22.4775 31.9902C29.4549 31.9902 35.1112 26.8367 35.1112 20.4795C35.1112 14.1223 29.4549 8.96875 22.4775 8.96875C15.5001 8.96875 9.84375 14.1223 9.84375 20.4795C9.84375 26.8367 15.5001 31.9902 22.4775 31.9902Z" fill="url(#paint2_radial_5_34)"/>
</g>
<path d="M22.5224 31.6699C29.3057 31.6699 34.8046 26.6598 34.8046 20.4795C34.8046 14.2992 29.3057 9.28906 22.5224 9.28906C15.7392 9.28906 10.2402 14.2992 10.2402 20.4795C10.2402 26.6598 15.7392 31.6699 22.5224 31.6699Z" stroke="url(#paint3_linear_5_34)" stroke-width="0.5"/>
<path d="M22.5 26.9062C26.3833 26.9062 29.5312 24.0381 29.5312 20.5C29.5312 16.9619 26.3833 14.0938 22.5 14.0938C18.6167 14.0938 15.4688 16.9619 15.4688 20.5C15.4688 24.0381 18.6167 26.9062 22.5 26.9062Z" fill="url(#paint4_radial_5_34)"/>
<path d="M16.875 17.9375C18.4283 17.9375 19.6875 16.7902 19.6875 15.375C19.6875 13.9598 18.4283 12.8125 16.875 12.8125C15.3217 12.8125 14.0625 13.9598 14.0625 15.375C14.0625 16.7902 15.3217 17.9375 16.875 17.9375Z" fill="white"/>
<defs>
<filter id="filter0_f_5_34" x="7.9375" y="7.1875" width="29.125" height="26.625" filterUnits="userSpaceOnUse" color-interpolation-filters="sRGB">
<feFlood flood-opacity="0" result="BackgroundImageFix"/>
<feBlend mode="normal" in="SourceGraphic" in2="BackgroundImageFix" result="shape"/>
<feGaussianBlur stdDeviation="0.25" result="effect1_foregroundBlur_5_34"/>
</filter>
<filter id="filter1_f_5_34" x="8.84375" y="7.96875" width="27.2676" height="25.0215" filterUnits="userSpaceOnUse" color-interpolation-filters="sRGB">
<feFlood flood-opacity="0" result="BackgroundImageFix"/>
<feBlend mode="normal" in="SourceGraphic" in2="BackgroundImageFix" result="shape"/>
<feGaussianBlur stdDeviation="0.5" result="effect1_foregroundBlur_5_34"/>
</filter>
<radialGradient id="paint0_radial_5_34" cx="0" cy="0" r="1" gradientUnits="userSpaceOnUse" gradientTransform="translate(34.4528 8.96968) rotate(116.614) scale(32.9611 34.9435)">
<stop stop-color="white"/>
<stop offset="0.712" stop-color="#DDC3C9"/>
<stop offset="1" stop-color="#AB87C1"/>
</radialGradient>
<radialGradient id="paint1_radial_5_34" cx="0" cy="0" r="1" gradientUnits="userSpaceOnUse" gradientTransform="translate(22.5 20.5) rotate(90) scale(12.8125 14.0625)">
<stop offset="0.744"/>
<stop offset="1" stop-opacity="0"/>
</radialGradient>
<radialGradient id="paint2_radial_5_34" cx="0" cy="0" r="1" gradientUnits="userSpaceOnUse" gradientTransform="translate(14.9414 24.8434) rotate(-29.8698) scale(14.1896 7.05405)">
<stop stop-color="#B78D8A"/>
<stop offset="0.967" stop-color="#B58985" stop-opacity="0"/>
</radialGradient>
<linearGradient id="paint3_linear_5_34" x1="12.832" y1="27.707" x2="19.106" y2="22.4588" gradientUnits="userSpaceOnUse">
<stop stop-color="#9B5347"/>
<stop offset="1" stop-color="#510910" stop-opacity="0"/>
</linearGradient>
<radialGradient id="paint4_radial_5_34" cx="0" cy="0" r="1" gradientUnits="userSpaceOnUse" gradientTransform="translate(17.9634 25.1228) rotate(-51.6821) scale(14.0578 11.5284)">
<stop offset="0.831" stop-color="#4B3F40" stop-opacity="0"/>
<stop offset="1" stop-color="#4B3F40"/>
</radialGradient>
</defs>
</svg>
