<svg width="44" height="47" viewBox="0 0 44 47" fill="none" xmlns="http://www.w3.org/2000/svg">
<g clip-path="url(#clip0_5_9)">
<path d="M32.6081 16.9233C35.8184 19.0862 39.7512 20.3587 43.9988 20.3587V12.6556C43.1948 12.6559 42.3931 12.5768 41.6066 12.4196V18.4831C37.3594 18.4831 33.4271 17.2107 30.2161 15.048V30.7681C30.2161 38.6322 23.4518 45.0067 15.1083 45.0067C11.9951 45.0067 9.10143 44.1197 6.69775 42.5983C9.44122 45.2421 13.2672 46.8821 17.4998 46.8821C25.8439 46.8821 32.6084 40.5076 32.6084 32.6432V16.9233H32.6081ZM35.5592 9.15182C33.9185 7.46257 32.8411 5.2795 32.6081 2.86597V1.87524H30.3412C30.9118 4.94272 32.8583 7.56338 35.5592 9.15182ZM11.975 36.5638C11.0583 35.4313 10.5628 34.0455 10.5651 32.6207C10.5651 29.0241 13.659 26.1078 17.4762 26.1078C18.1875 26.1074 18.8945 26.2104 19.5726 26.413V18.5376C18.7802 18.4353 17.9807 18.3917 17.1814 18.4077V24.5375C16.5031 24.3349 15.7956 24.232 15.0841 24.2325C11.2671 24.2325 8.1733 27.1484 8.1733 30.7456C8.1733 33.2891 9.71966 35.4911 11.975 36.5638Z" fill="#FF004F"/>
<path d="M30.2162 15.0479C33.4274 17.2105 37.3594 18.4829 41.6067 18.4829V12.4195C39.2359 11.9435 37.1371 10.7759 35.5592 9.15182C32.8581 7.56322 30.912 4.94256 30.3414 1.87524H24.3871V32.6429C24.3735 36.2298 21.2849 39.1341 17.476 39.1341C15.2317 39.1341 13.2376 38.1259 11.9748 36.5637C9.71981 35.4911 8.17328 33.2889 8.17328 30.7457C8.17328 27.1489 11.267 24.2327 15.084 24.2327C15.8154 24.2327 16.5202 24.3399 17.1814 24.5377V18.4079C8.98436 18.5675 2.39209 24.8798 2.39209 32.6431C2.39209 36.5185 4.03367 40.0316 6.69807 42.5986C9.10175 44.1197 11.9953 45.007 15.1086 45.007C23.4523 45.007 30.2164 38.632 30.2164 30.7681L30.2162 15.0479Z" fill="black"/>
<path d="M41.6066 12.4193V10.7802C39.4687 10.7831 37.373 10.2188 35.559 9.15187C37.1647 10.8086 39.279 11.951 41.6066 12.4197M30.3411 1.87514C30.2867 1.58205 30.245 1.287 30.216 0.990728V0H21.9945V30.768C21.9814 34.3546 18.8928 37.2588 15.0838 37.2588C14.0039 37.2604 12.9388 37.0224 11.9745 36.5641C13.2373 38.1259 15.2314 39.134 17.4757 39.134C21.2845 39.134 24.3734 36.23 24.3868 32.6431V1.8753L30.3411 1.87514ZM17.1817 18.4078V16.6625C16.4946 16.574 15.8021 16.5297 15.1087 16.5299C6.76414 16.5299 0 22.9047 0 30.768C0 35.698 2.65839 40.0427 6.69814 42.5984C4.03373 40.0315 2.39216 36.5182 2.39216 32.643C2.39216 24.8799 8.98425 18.5674 17.1817 18.4078Z" fill="#00F2EA"/>
</g>
<defs>
<clipPath id="clip0_5_9">
<rect width="44" height="47" fill="white"/>
</clipPath>
</defs>
</svg>
