<svg width="32" height="32" viewBox="0 0 32 32" fill="none" xmlns="http://www.w3.org/2000/svg">
<path d="M21.3339 9.33331C21.3339 8.59693 21.9309 7.99998 22.6672 7.99998C23.4036 7.99998 24.0006 8.59693 24.0006 9.33331C24.0006 10.0697 23.4036 10.6666 22.6672 10.6666C21.9309 10.6666 21.3339 10.0697 21.3339 9.33331Z" fill="white"/>
<path fill-rule="evenodd" clip-rule="evenodd" d="M16.0006 9.66665C12.5028 9.66665 9.66724 12.5022 9.66724 16C9.66724 19.4978 12.5028 22.3333 16.0006 22.3333C19.4984 22.3333 22.3339 19.4978 22.3339 16C22.3339 12.5022 19.4984 9.66665 16.0006 9.66665ZM11.6672 16C11.6672 13.6067 13.6073 11.6666 16.0006 11.6666C18.3938 11.6666 20.3339 13.6067 20.3339 16C20.3339 18.3932 18.3938 20.3333 16.0006 20.3333C13.6073 20.3333 11.6672 18.3932 11.6672 16Z" fill="white"/>
<path fill-rule="evenodd" clip-rule="evenodd" d="M23.0116 3.77733C18.3895 3.26075 13.6117 3.26075 8.9896 3.77733C6.30685 4.07717 4.14107 6.19052 3.82567 8.88722C3.27295 13.613 3.27295 18.387 3.82567 23.1127C4.14107 25.8094 6.30685 27.9228 8.9896 28.2226C13.6117 28.7392 18.3895 28.7392 23.0116 28.2226C25.6943 27.9228 27.8601 25.8094 28.1755 23.1127C28.7282 18.387 28.7282 13.613 28.1755 8.88722C27.8601 6.19052 25.6943 4.07717 23.0116 3.77733ZM9.21174 5.76496C13.6862 5.26487 18.315 5.26487 22.7894 5.76496C24.5629 5.96317 25.9836 7.36266 26.189 9.11956C26.7237 13.6909 26.7237 18.309 26.189 22.8804C25.9836 24.6373 24.5629 26.0368 22.7894 26.235C18.315 26.7351 13.6862 26.7351 9.21174 26.235C7.43827 26.0368 6.01762 24.6373 5.81213 22.8804C5.27747 18.309 5.27747 13.6909 5.81213 9.11956C6.01762 7.36266 7.43827 5.96317 9.21174 5.76496Z" fill="white"/>
</svg>
