<svg width="32" height="32" viewBox="0 0 32 32" fill="none" xmlns="http://www.w3.org/2000/svg">
<path fill-rule="evenodd" clip-rule="evenodd" d="M13.8486 11.1424C13.5397 10.957 13.155 10.9522 12.8414 11.1297C12.5279 11.3072 12.3341 11.6396 12.3341 11.9999V19.9999C12.3341 20.3602 12.5279 20.6926 12.8414 20.8701C13.155 21.0476 13.5397 21.0427 13.8486 20.8574L20.5153 16.8574C20.8165 16.6766 21.0008 16.3511 21.0008 15.9999C21.0008 15.6486 20.8165 15.3231 20.5153 15.1424L13.8486 11.1424ZM18.0572 15.9999L14.3341 18.2337V13.7661L18.0572 15.9999Z" fill="white"/>
<path fill-rule="evenodd" clip-rule="evenodd" d="M22.7084 6.18825C18.2435 5.83894 13.7582 5.83894 9.29333 6.18825L6.30572 6.42199C4.48897 6.56412 3.00272 7.92573 2.70241 9.72312C2.00805 13.8788 2.00805 18.1209 2.7024 22.2766C3.00272 24.074 4.48897 25.4356 6.30573 25.5778L9.29333 25.8115C13.7582 26.1608 18.2435 26.1608 22.7084 25.8115L25.696 25.5778C27.5127 25.4356 28.999 24.074 29.2993 22.2766C29.9937 18.1209 29.9937 13.8788 29.2993 9.72312C28.999 7.92573 27.5127 6.56412 25.696 6.42199L22.7084 6.18825ZM9.44932 8.18216C13.8104 7.84097 18.1914 7.84097 22.5524 8.18216L25.54 8.4159C26.4408 8.48637 27.1777 9.16151 27.3266 10.0527C27.9845 13.9902 27.9845 18.0096 27.3266 21.947C27.1777 22.8382 26.4408 23.5134 25.54 23.5839L22.5524 23.8176C18.1914 24.1588 13.8103 24.1588 9.44932 23.8176L6.46172 23.5839C5.5609 23.5134 4.82397 22.8382 4.67506 21.947C4.01717 18.0096 4.01717 13.9902 4.67506 10.0527C4.82397 9.16151 5.5609 8.48637 6.46172 8.4159L9.44932 8.18216Z" fill="white"/>
</svg>
